<svg xmlns="http://www.w3.org/2000/svg" viewBox="0 0 512 512">
  <defs>
    <linearGradient id="bg-light" x1="0%" y1="0%" x2="100%" y2="100%">
      <stop offset="0%" stop-color="#FFFFFF"/>
      <stop offset="100%" stop-color="#F8F6F3"/>
    </linearGradient>
    <linearGradient id="emerald-gradient" x1="0%" y1="0%" x2="100%" y2="100%">
      <stop offset="0%" stop-color="#1B6B54"/>
      <stop offset="38.2%" stop-color="#1B4D3E"/>
      <stop offset="100%" stop-color="#142A23"/>
    </linearGradient>
    <linearGradient id="gold-accent" x1="0%" y1="0%" x2="100%" y2="100%">
      <stop offset="0%" stop-color="#D4A853"/>
      <stop offset="100%" stop-color="#A67520"/>
    </linearGradient>
    <filter id="shadow-light" x="-20%" y="-20%" width="140%" height="140%">
      <feDropShadow dx="0" dy="4" stdDeviation="12" flood-color="#1B4D3E" flood-opacity="0.15"/>
    </filter>
  </defs>
  <rect width="512" height="512" rx="89" ry="89" fill="url(#bg-light)"/>
  <g opacity="0.04">
    <path d="M256 80 L432 256 L256 432 L80 256 Z" fill="none" stroke="#1B4D3E" stroke-width="1"/>
    <path d="M256 130 L382 256 L256 382 L130 256 Z" fill="none" stroke="#1B4D3E" stroke-width="0.5"/>
  </g>
  <g filter="url(#shadow-light)">
    <path d="M 140 380 L 140 220 Q 140 100, 256 100 Q 372 100, 372 220 L 372 380" fill="none" stroke="url(#gold-accent)" stroke-width="8" stroke-linecap="round" opacity="0.3"/>
    <g>
      <path d="M 310 160 Q 360 160, 360 210 Q 360 270, 256 270" fill="none" stroke="url(#emerald-gradient)" stroke-width="34" stroke-linecap="round"/>
      <path d="M 256 270 Q 200 270, 200 310 Q 200 350, 256 350" fill="none" stroke="url(#emerald-gradient)" stroke-width="34" stroke-linecap="round"/>
      <path d="M 256 350 Q 340 350, 340 390 Q 340 430, 256 430" fill="none" stroke="url(#emerald-gradient)" stroke-width="26" stroke-linecap="round"/>
      <circle cx="310" cy="160" r="21" fill="url(#gold-accent)"/>
      <circle cx="256" cy="430" r="17" fill="url(#gold-accent)"/>
    </g>
  </g>
  <g transform="translate(410, 90)" opacity="0.6">
    <path d="M 0 -21 L 6 -6 L 21 0 L 6 6 L 0 21 L -6 6 L -21 0 L -6 -6 Z" fill="url(#gold-accent)"/>
  </g>
</svg>
